<?xml version="1.0" standalone="no"?>
<!DOCTYPE svg PUBLIC "-//W3C//DTD SVG 20010904//EN"
 "http://www.w3.org/TR/2001/REC-SVG-20010904/DTD/svg10.dtd">
<svg version="1.0" xmlns="http://www.w3.org/2000/svg"
 width="751.000000pt" height="886.000000pt" viewBox="0 0 751.000000 886.000000"
 preserveAspectRatio="xMidYMid meet">

<g transform="translate(0.000000,886.000000) scale(0.100000,-0.100000)"
fill="#000000" stroke="none">
<path id="outer-silhouette" d="M4056 8567 c48 -53 113 -157 97 -157 -4 0 -39 15 -78 34 -123 61
-201 78 -381 83 -123 4 -186 1 -260 -11 -157 -26 -328 -68 -389 -95 -11 -5
-56 -24 -100 -41 -112 -44 -276 -137 -440 -248 -257 -175 -436 -252 -583 -252
-36 0 -61 -4 -58 -9 8 -13 133 -58 180 -65 21 -3 41 -8 44 -11 3 -3 -29 -40
-71 -83 -129 -129 -185 -215 -241 -372 -21 -57 -28 -100 -32 -180 -5 -114 0
-114 40 1 9 25 23 54 30 65 12 16 14 -3 13 -141 -1 -149 10 -263 34 -340 5
-16 41 -128 80 -247 l71 -217 -31 -32 c-42 -42 -46 -62 -45 -229 1 -184 21
-276 105 -479 64 -157 105 -218 173 -260 19 -12 36 -31 39 -44 125 -562 172
-657 566 -1140 24 -29 25 -39 32 -216 5 -102 13 -208 18 -234 12 -53 69 -204
107 -279 85 -170 294 -428 345 -428 108 0 640 403 995 755 172 171 326 367
354 449 9 28 9 82 1 230 -15 273 -14 454 4 529 8 34 26 118 40 187 42 203 34
185 89 182 76 -5 145 32 201 110 74 99 106 168 152 323 40 135 54 219 60 342
8 171 -2 208 -69 267 l-48 42 25 150 c51 305 57 366 57 559 0 141 -4 212 -17
275 -24 121 -53 229 -71 268 -9 19 -13 36 -11 39 8 7 69 -63 99 -115 l28 -47
0 34 c0 48 -85 241 -138 314 -127 174 -306 297 -480 330 -47 9 -62 16 -60 27
4 21 106 87 146 95 19 4 32 11 29 18 -2 8 -31 12 -84 12 -73 0 -87 -3 -151
-36 -77 -40 -78 -40 -103 21 -47 121 -148 230 -263 285 -40 19 -79 35 -86 35
-6 0 10 -24 36 -53z"/>
<path id="inner-detail" d="M4994 3573 c-54 -127 -140 -285 -221 -406 -92 -137 -232 -330 -304
-417 -21 -25 -73 -88 -116 -140 -206 -252 -352 -410 -376 -410 -14 0 -95 85
-231 243 -33 37 -65 67 -71 65 -7 -2 -43 -41 -80 -88 -38 -47 -95 -116 -128
-154 l-61 -68 -7 -242 c-4 -132 -10 -277 -14 -321 -3 -44 -13 -177 -21 -295
-23 -329 -30 -407 -68 -800 -8 -74 -11 -141 -8 -149 5 -12 64 -13 401 -8 218
3 443 11 501 18 435 46 720 88 890 129 78 19 159 38 230 54 41 10 86 21 100
26 14 5 92 30 175 56 459 143 885 357 1033 518 74 81 87 128 86 301 -1 309
-95 638 -251 884 -75 117 -169 217 -358 380 -207 179 -864 704 -1013 810 l-72
51 -16 -37z"/>
<path id="another-detail" d="M2585 3487 c-11 -8 -49 -30 -85 -49 -36 -19 -126 -69 -200 -110 -273
-151 -380 -207 -833 -436 -327 -166 -391 -206 -515 -326 -163 -158 -274 -365
-377 -706 -102 -335 -111 -535 -30 -644 28 -38 134 -121 235 -183 104 -65 355
-189 470 -233 47 -18 103 -41 125 -50 40 -18 226 -80 320 -107 96 -28 111 -32
195 -53 76 -19 118 -29 265 -61 76 -17 250 -49 266 -49 13 0 21 19 34 73 10
39 24 95 32 122 8 28 19 68 25 90 6 22 14 49 18 60 4 11 21 76 38 145 41 168
145 516 172 575 5 11 22 63 39 115 34 109 114 332 171 470 21 52 41 103 44
113 3 10 -8 69 -24 132 -16 62 -36 150 -44 195 -8 45 -17 84 -21 88 -8 8 -94
-83 -181 -191 -31 -37 -61 -66 -67 -64 -12 4 -36 157 -56 358 -20 212 -12 539
18 679 12 57 2 71 -34 47z"/>
</g>
</svg>
